# xmcd
#
# Track frame offsets:
#	150
#	15520
#	30220
#	44097
#	61238
#	74610
#	91632
#	105194
#	119838
#	131987
#	146835
#	162944
#	178736
#	195526
#	210809
#	226582
#	242646
#	261686
#
# Disc length: 3702 seconds
#
# Revision: 3
# Processed by: cddbd v1.5.1PL2 Copyright (c) Steve Scherf et al.
# Submitted via: audiograbber 1.83.01
#
DISCID=f90e7412
DTITLE=diverse - Country Hits Volume 2 CD1
DYEAR=2005
DGENRE=Country
TTITLE0=Achy, Breaky Heart
TTITLE1=Drivin´ my life away
TTITLE2=Guitars, Cadillacs
TTITLE3=Livin´ on love
TTITLE4=Little miss Honky Tonky
TTITLE5=We´ve got tonight
TTITLE6=Eighteen wheels and a dozen Roses
TTITLE7=All my ex´s live in Texas
TTITLE8=Rockin´ with the rhythm of the rain
TTITLE9=Love in the first degree
TTITLE10=Texas Cowboys
TTITLE11=I´m no Stranger to the rain
TTITLE12=I was Country when Country wasn´t cool
TTITLE13=Be stopped loving her today
TTITLE14=The first wod in memory is me
TTITLE15=Red neckin´ love making night
TTITLE16=Tennessee Rose
TTITLE17=Looking´ for love
EXTD=
EXTT0=
EXTT1=
EXTT2=
EXTT3=
EXTT4=
EXTT5=
EXTT6=
EXTT7=
EXTT8=
EXTT9=
EXTT10=
EXTT11=
EXTT12=
EXTT13=
EXTT14=
EXTT15=
EXTT16=
EXTT17=
PLAYORDER=
